<mxfile host="app.diagrams.net" modified="2023-10-10T03:49:38.646Z" agent="Mozilla/5.0 (Windows NT 10.0; Win64; x64) AppleWebKit/537.36 (KHTML, like Gecko) Chrome/117.0.0.0 Safari/537.36" etag="qPa7OoNIftYT-IbYYYVm" version="22.0.4" type="device">
  <diagram name="페이지-1" id="TqrH6-Eq9_K3HOuwOP_P">
    <mxGraphModel dx="1674" dy="790" grid="1" gridSize="10" guides="1" tooltips="1" connect="1" arrows="1" fold="1" page="1" pageScale="1" pageWidth="827" pageHeight="1169" math="0" shadow="0">
      <root>
        <mxCell id="0" />
        <mxCell id="1" parent="0" />
        <mxCell id="qsNLnsfJQvfggT2bFRAm-9" style="edgeStyle=orthogonalEdgeStyle;rounded=0;orthogonalLoop=1;jettySize=auto;html=1;entryX=0;entryY=0.5;entryDx=0;entryDy=0;" parent="1" source="qsNLnsfJQvfggT2bFRAm-2" target="qsNLnsfJQvfggT2bFRAm-17" edge="1">
          <mxGeometry relative="1" as="geometry">
            <mxPoint x="160" y="100" as="targetPoint" />
            <Array as="points">
              <mxPoint x="120" y="120" />
              <mxPoint x="120" y="60" />
            </Array>
          </mxGeometry>
        </mxCell>
        <mxCell id="qsNLnsfJQvfggT2bFRAm-25" style="edgeStyle=orthogonalEdgeStyle;rounded=0;orthogonalLoop=1;jettySize=auto;html=1;entryX=0;entryY=0.5;entryDx=0;entryDy=0;" parent="1" source="qsNLnsfJQvfggT2bFRAm-2" target="qsNLnsfJQvfggT2bFRAm-22" edge="1">
          <mxGeometry relative="1" as="geometry" />
        </mxCell>
        <mxCell id="qsNLnsfJQvfggT2bFRAm-26" style="edgeStyle=orthogonalEdgeStyle;rounded=0;orthogonalLoop=1;jettySize=auto;html=1;entryX=0;entryY=0.5;entryDx=0;entryDy=0;" parent="1" source="qsNLnsfJQvfggT2bFRAm-2" target="qsNLnsfJQvfggT2bFRAm-23" edge="1">
          <mxGeometry relative="1" as="geometry" />
        </mxCell>
        <mxCell id="qsNLnsfJQvfggT2bFRAm-40" style="edgeStyle=orthogonalEdgeStyle;rounded=0;orthogonalLoop=1;jettySize=auto;html=1;entryX=0;entryY=0.5;entryDx=0;entryDy=0;" parent="1" source="qsNLnsfJQvfggT2bFRAm-2" target="qsNLnsfJQvfggT2bFRAm-27" edge="1">
          <mxGeometry relative="1" as="geometry" />
        </mxCell>
        <mxCell id="qsNLnsfJQvfggT2bFRAm-41" style="edgeStyle=orthogonalEdgeStyle;rounded=0;orthogonalLoop=1;jettySize=auto;html=1;entryX=0;entryY=0.5;entryDx=0;entryDy=0;" parent="1" source="qsNLnsfJQvfggT2bFRAm-2" target="qsNLnsfJQvfggT2bFRAm-39" edge="1">
          <mxGeometry relative="1" as="geometry" />
        </mxCell>
        <mxCell id="qsNLnsfJQvfggT2bFRAm-43" style="edgeStyle=orthogonalEdgeStyle;rounded=0;orthogonalLoop=1;jettySize=auto;html=1;entryX=0;entryY=0.5;entryDx=0;entryDy=0;" parent="1" source="qsNLnsfJQvfggT2bFRAm-2" target="qsNLnsfJQvfggT2bFRAm-42" edge="1">
          <mxGeometry relative="1" as="geometry" />
        </mxCell>
        <object label="회원" id="qsNLnsfJQvfggT2bFRAm-2">
          <mxCell style="shape=umlActor;verticalLabelPosition=bottom;verticalAlign=top;html=1;direction=east;" parent="1" vertex="1">
            <mxGeometry x="40" y="90" width="30" height="60" as="geometry" />
          </mxCell>
        </object>
        <mxCell id="qsNLnsfJQvfggT2bFRAm-57" style="edgeStyle=orthogonalEdgeStyle;rounded=0;orthogonalLoop=1;jettySize=auto;html=1;entryX=1;entryY=0.5;entryDx=0;entryDy=0;" parent="1" source="qsNLnsfJQvfggT2bFRAm-10" target="qsNLnsfJQvfggT2bFRAm-53" edge="1">
          <mxGeometry relative="1" as="geometry" />
        </mxCell>
        <mxCell id="qsNLnsfJQvfggT2bFRAm-62" style="edgeStyle=orthogonalEdgeStyle;rounded=0;orthogonalLoop=1;jettySize=auto;html=1;entryX=1;entryY=0.5;entryDx=0;entryDy=0;" parent="1" source="qsNLnsfJQvfggT2bFRAm-10" target="qsNLnsfJQvfggT2bFRAm-60" edge="1">
          <mxGeometry relative="1" as="geometry" />
        </mxCell>
        <mxCell id="qsNLnsfJQvfggT2bFRAm-63" style="edgeStyle=orthogonalEdgeStyle;rounded=0;orthogonalLoop=1;jettySize=auto;html=1;entryX=1;entryY=0.5;entryDx=0;entryDy=0;" parent="1" source="qsNLnsfJQvfggT2bFRAm-10" target="qsNLnsfJQvfggT2bFRAm-61" edge="1">
          <mxGeometry relative="1" as="geometry" />
        </mxCell>
        <mxCell id="qsNLnsfJQvfggT2bFRAm-10" value="관리자&lt;br&gt;" style="shape=umlActor;verticalLabelPosition=bottom;verticalAlign=top;html=1;" parent="1" vertex="1">
          <mxGeometry x="741" y="180" width="30" height="60" as="geometry" />
        </mxCell>
        <mxCell id="qsNLnsfJQvfggT2bFRAm-17" value="로그인" style="ellipse;whiteSpace=wrap;html=1;" parent="1" vertex="1">
          <mxGeometry x="200" y="40" width="70" height="40" as="geometry" />
        </mxCell>
        <mxCell id="qsNLnsfJQvfggT2bFRAm-22" value="전체상품&lt;br&gt;조회" style="ellipse;whiteSpace=wrap;html=1;" parent="1" vertex="1">
          <mxGeometry x="200" y="90" width="70" height="40" as="geometry" />
        </mxCell>
        <mxCell id="qsNLnsfJQvfggT2bFRAm-23" value="상품(키워드)검색" style="ellipse;whiteSpace=wrap;html=1;" parent="1" vertex="1">
          <mxGeometry x="200" y="140" width="70" height="40" as="geometry" />
        </mxCell>
        <mxCell id="qsNLnsfJQvfggT2bFRAm-27" value="상품구매" style="ellipse;whiteSpace=wrap;html=1;" parent="1" vertex="1">
          <mxGeometry x="200" y="190" width="70" height="40" as="geometry" />
        </mxCell>
        <mxCell id="qsNLnsfJQvfggT2bFRAm-28" value="상품" style="ellipse;whiteSpace=wrap;html=1;" parent="1" vertex="1">
          <mxGeometry x="355" y="100" width="90" height="60" as="geometry" />
        </mxCell>
        <mxCell id="qsNLnsfJQvfggT2bFRAm-29" value="&amp;lt;&amp;lt;확장&amp;gt;&amp;gt;" style="html=1;verticalAlign=bottom;labelBackgroundColor=none;endArrow=open;endFill=0;dashed=1;rounded=0;exitX=0;exitY=0.5;exitDx=0;exitDy=0;entryX=1;entryY=0.5;entryDx=0;entryDy=0;" parent="1" source="qsNLnsfJQvfggT2bFRAm-28" target="qsNLnsfJQvfggT2bFRAm-22" edge="1">
          <mxGeometry width="160" relative="1" as="geometry">
            <mxPoint x="320" y="190" as="sourcePoint" />
            <mxPoint x="480" y="190" as="targetPoint" />
          </mxGeometry>
        </mxCell>
        <mxCell id="qsNLnsfJQvfggT2bFRAm-30" value="&amp;lt;&amp;lt;확장&amp;gt;&amp;gt;" style="html=1;verticalAlign=bottom;labelBackgroundColor=none;endArrow=open;endFill=0;dashed=1;rounded=0;entryX=1;entryY=0.5;entryDx=0;entryDy=0;exitX=0;exitY=0.5;exitDx=0;exitDy=0;" parent="1" source="qsNLnsfJQvfggT2bFRAm-28" target="qsNLnsfJQvfggT2bFRAm-23" edge="1">
          <mxGeometry width="160" relative="1" as="geometry">
            <mxPoint x="310" y="130" as="sourcePoint" />
            <mxPoint x="280" y="120" as="targetPoint" />
          </mxGeometry>
        </mxCell>
        <mxCell id="qsNLnsfJQvfggT2bFRAm-36" value="" style="edgeStyle=orthogonalEdgeStyle;rounded=0;orthogonalLoop=1;jettySize=auto;html=1;" parent="1" source="qsNLnsfJQvfggT2bFRAm-33" target="qsNLnsfJQvfggT2bFRAm-2" edge="1">
          <mxGeometry relative="1" as="geometry" />
        </mxCell>
        <mxCell id="3iBlblyJmUkQZb7cWtiA-2" style="edgeStyle=orthogonalEdgeStyle;rounded=0;orthogonalLoop=1;jettySize=auto;html=1;" edge="1" parent="1" source="qsNLnsfJQvfggT2bFRAm-33" target="3iBlblyJmUkQZb7cWtiA-1">
          <mxGeometry relative="1" as="geometry" />
        </mxCell>
        <object label="고객" id="qsNLnsfJQvfggT2bFRAm-33">
          <mxCell style="shape=umlActor;verticalLabelPosition=bottom;verticalAlign=top;html=1;direction=east;" parent="1" vertex="1">
            <mxGeometry x="40" y="240" width="30" height="60" as="geometry" />
          </mxCell>
        </object>
        <mxCell id="qsNLnsfJQvfggT2bFRAm-39" value="내 거래이력&lt;br&gt;조회" style="ellipse;whiteSpace=wrap;html=1;" parent="1" vertex="1">
          <mxGeometry x="200" y="240" width="70" height="40" as="geometry" />
        </mxCell>
        <mxCell id="qsNLnsfJQvfggT2bFRAm-42" value="내 정보&lt;br&gt;조회" style="ellipse;whiteSpace=wrap;html=1;" parent="1" vertex="1">
          <mxGeometry x="200" y="290" width="70" height="40" as="geometry" />
        </mxCell>
        <mxCell id="qsNLnsfJQvfggT2bFRAm-44" value="거래" style="ellipse;whiteSpace=wrap;html=1;" parent="1" vertex="1">
          <mxGeometry x="355" y="180" width="90" height="60" as="geometry" />
        </mxCell>
        <mxCell id="qsNLnsfJQvfggT2bFRAm-45" value="&amp;lt;&amp;lt;확장&amp;gt;&amp;gt;" style="html=1;verticalAlign=bottom;labelBackgroundColor=none;endArrow=open;endFill=0;dashed=1;rounded=0;entryX=1;entryY=0.5;entryDx=0;entryDy=0;exitX=0;exitY=0.5;exitDx=0;exitDy=0;" parent="1" source="qsNLnsfJQvfggT2bFRAm-44" target="qsNLnsfJQvfggT2bFRAm-39" edge="1">
          <mxGeometry width="160" relative="1" as="geometry">
            <mxPoint x="370" y="240" as="sourcePoint" />
            <mxPoint x="280" y="120" as="targetPoint" />
          </mxGeometry>
        </mxCell>
        <mxCell id="qsNLnsfJQvfggT2bFRAm-46" value="&amp;lt;&amp;lt;확장&amp;gt;&amp;gt;" style="html=1;verticalAlign=bottom;labelBackgroundColor=none;endArrow=open;endFill=0;dashed=1;rounded=0;entryX=1;entryY=0.5;entryDx=0;entryDy=0;exitX=0;exitY=0.5;exitDx=0;exitDy=0;" parent="1" source="qsNLnsfJQvfggT2bFRAm-44" target="qsNLnsfJQvfggT2bFRAm-27" edge="1">
          <mxGeometry width="160" relative="1" as="geometry">
            <mxPoint x="370" y="250" as="sourcePoint" />
            <mxPoint x="280" y="270" as="targetPoint" />
          </mxGeometry>
        </mxCell>
        <mxCell id="qsNLnsfJQvfggT2bFRAm-47" value="회원" style="ellipse;whiteSpace=wrap;html=1;" parent="1" vertex="1">
          <mxGeometry x="355" y="250" width="90" height="60" as="geometry" />
        </mxCell>
        <mxCell id="qsNLnsfJQvfggT2bFRAm-48" value="&amp;lt;&amp;lt;확장&amp;gt;&amp;gt;" style="html=1;verticalAlign=bottom;labelBackgroundColor=none;endArrow=open;endFill=0;dashed=1;rounded=0;entryX=1;entryY=0.5;entryDx=0;entryDy=0;exitX=0;exitY=0.5;exitDx=0;exitDy=0;" parent="1" source="qsNLnsfJQvfggT2bFRAm-47" target="qsNLnsfJQvfggT2bFRAm-42" edge="1">
          <mxGeometry width="160" relative="1" as="geometry">
            <mxPoint x="370" y="220" as="sourcePoint" />
            <mxPoint x="280" y="270" as="targetPoint" />
          </mxGeometry>
        </mxCell>
        <mxCell id="qsNLnsfJQvfggT2bFRAm-54" style="edgeStyle=orthogonalEdgeStyle;rounded=0;orthogonalLoop=1;jettySize=auto;html=1;entryX=0;entryY=0.5;entryDx=0;entryDy=0;" parent="1" source="qsNLnsfJQvfggT2bFRAm-49" target="qsNLnsfJQvfggT2bFRAm-53" edge="1">
          <mxGeometry relative="1" as="geometry" />
        </mxCell>
        <mxCell id="qsNLnsfJQvfggT2bFRAm-49" value="상품추가" style="ellipse;whiteSpace=wrap;html=1;" parent="1" vertex="1">
          <mxGeometry x="521" y="80" width="70" height="40" as="geometry" />
        </mxCell>
        <mxCell id="qsNLnsfJQvfggT2bFRAm-55" style="edgeStyle=orthogonalEdgeStyle;rounded=0;orthogonalLoop=1;jettySize=auto;html=1;" parent="1" source="qsNLnsfJQvfggT2bFRAm-50" target="qsNLnsfJQvfggT2bFRAm-53" edge="1">
          <mxGeometry relative="1" as="geometry" />
        </mxCell>
        <mxCell id="qsNLnsfJQvfggT2bFRAm-50" value="상품수정" style="ellipse;whiteSpace=wrap;html=1;" parent="1" vertex="1">
          <mxGeometry x="521" y="130" width="70" height="40" as="geometry" />
        </mxCell>
        <mxCell id="qsNLnsfJQvfggT2bFRAm-56" style="edgeStyle=orthogonalEdgeStyle;rounded=0;orthogonalLoop=1;jettySize=auto;html=1;" parent="1" source="qsNLnsfJQvfggT2bFRAm-51" target="qsNLnsfJQvfggT2bFRAm-53" edge="1">
          <mxGeometry relative="1" as="geometry" />
        </mxCell>
        <mxCell id="qsNLnsfJQvfggT2bFRAm-51" value="상품삭제" style="ellipse;whiteSpace=wrap;html=1;" parent="1" vertex="1">
          <mxGeometry x="521" y="180" width="70" height="40" as="geometry" />
        </mxCell>
        <mxCell id="qsNLnsfJQvfggT2bFRAm-53" value="상품관리" style="ellipse;whiteSpace=wrap;html=1;" parent="1" vertex="1">
          <mxGeometry x="631" y="115" width="70" height="70" as="geometry" />
        </mxCell>
        <mxCell id="qsNLnsfJQvfggT2bFRAm-59" value="&amp;lt;&amp;lt;포함&amp;gt;&amp;gt;" style="html=1;verticalAlign=bottom;labelBackgroundColor=none;endArrow=open;endFill=0;dashed=1;rounded=0;exitX=0.5;exitY=0;exitDx=0;exitDy=0;entryX=0.5;entryY=0;entryDx=0;entryDy=0;" parent="1" source="qsNLnsfJQvfggT2bFRAm-53" target="qsNLnsfJQvfggT2bFRAm-28" edge="1">
          <mxGeometry width="160" relative="1" as="geometry">
            <mxPoint x="370" y="140" as="sourcePoint" />
            <mxPoint x="470" y="70" as="targetPoint" />
            <Array as="points">
              <mxPoint x="666" y="40" />
              <mxPoint x="560" y="40" />
              <mxPoint x="400" y="40" />
            </Array>
          </mxGeometry>
        </mxCell>
        <mxCell id="qsNLnsfJQvfggT2bFRAm-60" value="거래이력&lt;br&gt;전체조회" style="ellipse;whiteSpace=wrap;html=1;" parent="1" vertex="1">
          <mxGeometry x="521" y="230" width="70" height="40" as="geometry" />
        </mxCell>
        <mxCell id="qsNLnsfJQvfggT2bFRAm-61" value="회원정보&lt;br&gt;전체조회" style="ellipse;whiteSpace=wrap;html=1;" parent="1" vertex="1">
          <mxGeometry x="521" y="280" width="70" height="40" as="geometry" />
        </mxCell>
        <mxCell id="qsNLnsfJQvfggT2bFRAm-65" value="&amp;lt;&amp;lt;포함&amp;gt;&amp;gt;" style="html=1;verticalAlign=bottom;labelBackgroundColor=none;endArrow=open;endFill=0;dashed=1;rounded=0;exitX=0;exitY=0.5;exitDx=0;exitDy=0;entryX=1;entryY=0.5;entryDx=0;entryDy=0;" parent="1" source="qsNLnsfJQvfggT2bFRAm-60" target="qsNLnsfJQvfggT2bFRAm-44" edge="1">
          <mxGeometry width="160" relative="1" as="geometry">
            <mxPoint x="370" y="220" as="sourcePoint" />
            <mxPoint x="500" y="170" as="targetPoint" />
          </mxGeometry>
        </mxCell>
        <mxCell id="qsNLnsfJQvfggT2bFRAm-66" value="&amp;lt;&amp;lt;포함&amp;gt;&amp;gt;" style="html=1;verticalAlign=bottom;labelBackgroundColor=none;endArrow=open;endFill=0;dashed=1;rounded=0;exitX=0;exitY=0.5;exitDx=0;exitDy=0;entryX=1;entryY=0.5;entryDx=0;entryDy=0;" parent="1" source="qsNLnsfJQvfggT2bFRAm-61" target="qsNLnsfJQvfggT2bFRAm-47" edge="1">
          <mxGeometry width="160" relative="1" as="geometry">
            <mxPoint x="460" y="220" as="sourcePoint" />
            <mxPoint x="490" y="350" as="targetPoint" />
          </mxGeometry>
        </mxCell>
        <mxCell id="3iBlblyJmUkQZb7cWtiA-1" value="회원가입" style="ellipse;whiteSpace=wrap;html=1;" vertex="1" parent="1">
          <mxGeometry x="20" y="360" width="70" height="40" as="geometry" />
        </mxCell>
        <mxCell id="3iBlblyJmUkQZb7cWtiA-4" value="&amp;lt;&amp;lt;포함&amp;gt;&amp;gt;" style="html=1;verticalAlign=bottom;labelBackgroundColor=none;endArrow=open;endFill=0;dashed=1;rounded=0;entryX=0.5;entryY=1;entryDx=0;entryDy=0;exitX=1;exitY=0.5;exitDx=0;exitDy=0;" edge="1" parent="1" source="3iBlblyJmUkQZb7cWtiA-1" target="qsNLnsfJQvfggT2bFRAm-47">
          <mxGeometry width="160" relative="1" as="geometry">
            <mxPoint x="280" y="400" as="sourcePoint" />
            <mxPoint x="351" y="440" as="targetPoint" />
            <Array as="points">
              <mxPoint x="400" y="380" />
            </Array>
          </mxGeometry>
        </mxCell>
      </root>
    </mxGraphModel>
  </diagram>
</mxfile>
